<svg width="1000" height="1000" fill="none" xmlns="http://www.w3.org/2000/svg"><path fill="none" d="M0 0h1000v1000H0z"/><path d="M930 534.3V343.2l-43.5 12.6v190.6l43.6-12.1z" fill="#2F9C4E"/><path d="M889 507.4l21.3-15.2-21.3 5.7v9.5z" fill="#2B8B44"/><path d="M175.4 684.7l-95.7 26.4 132.2 30.4-36.5-56.8z" fill="#2A8C46"/><path d="M892 500.8a392.8 392.8 0 11-785.6 0 392.8 392.8 0 01785.6 0z" fill="#F69B17"/><path d="M841.4 500.8a342.1 342.1 0 11-684.3 0 342.1 342.1 0 01684.3 0z" fill="#D92B37"/><path d="M829.2 501.3a329.4 329.4 0 11-658.9 0 329.4 329.4 0 01658.9 0z" fill="#F9C00E"/><circle cx="634.1" cy="301.1" r="56.3" fill="#D92A37"/><circle cx="619.4" cy="261.1" r="5.1" fill="#F95D6F"/><circle cx="640.6" cy="281.3" r="5.1" fill="#F95D6F"/><circle cx="620.4" cy="341.1" r="5.1" fill="#F95D6F"/><circle cx="673.1" cy="322.9" r="5.1" fill="#F95D6F"/><circle cx="638.6" cy="330" r="5.1" fill="#F95D6F"/><circle cx="639.6" cy="315.8" r="5.1" fill="#F95D6F"/><circle cx="656.9" cy="259" r="5.1" fill="#F95D6F"/><circle cx="673.1" cy="288.4" r="5.1" fill="#F95D6F"/><circle cx="590" cy="280.3" r="5.1" fill="#F95D6F"/><circle cx="605.2" cy="318.8" r="5.1" fill="#F95D6F"/><circle cx="620.4" cy="301.6" r="5.1" fill="#F95D6F"/><circle cx="400" cy="306.3" r="56.3" transform="rotate(-85.6 400 306.3)" fill="#D92A37"/><circle cx="358.9" cy="317.8" r="5.1" transform="rotate(-85.6 359 317.8)" fill="#F95D6F"/><circle cx="380.8" cy="298.2" r="5.1" transform="rotate(-85.6 380.8 298.2)" fill="#F95D6F"/><circle cx="438.8" cy="323" r="5.1" transform="rotate(-85.6 438.8 323)" fill="#F95D6F"/><circle cx="424.7" cy="269" r="5.1" transform="rotate(-85.6 424.7 269)" fill="#F95D6F"/><circle cx="429.1" cy="303.9" r="5.1" transform="rotate(-85.6 429.1 304)" fill="#F95D6F"/><circle cx="415.1" cy="301.8" r="5.1" transform="rotate(-85.6 415 301.8)" fill="#F95D6F"/><circle cx="359.8" cy="280.3" r="5.1" transform="rotate(-85.6 359.8 280.3)" fill="#F95D6F"/><circle cx="390.4" cy="266.4" r="5.1" transform="rotate(-85.6 390.4 266.4)" fill="#F95D6F"/><circle cx="375.8" cy="348.6" r="5.1" transform="rotate(-85.6 375.8 348.6)" fill="#F95D6F"/><circle cx="415.4" cy="336.4" r="5.1" transform="rotate(-85.6 415.4 336.4)" fill="#F95D6F"/><circle cx="399.4" cy="319.9" r="5.1" transform="rotate(-85.6 399.4 320)" fill="#F95D6F"/><circle cx="489" cy="726.8" r="56.3" transform="rotate(47.3 489 726.8)" fill="#D92A37"/><circle cx="508.5" cy="688.8" r="5.1" transform="rotate(47.3 508.5 688.8)" fill="#F95D6F"/><circle cx="508" cy="718.2" r="5.1" transform="rotate(47.3 508 718.2)" fill="#F95D6F"/><circle cx="450.3" cy="743.9" r="5.1" transform="rotate(47.3 450.3 743.9)" fill="#F95D6F"/><circle cx="499.4" cy="770.2" r="5.1" transform="rotate(47.3 499.4 770.2)" fill="#F95D6F"/><circle cx="470.9" cy="749.7" r="5.1" transform="rotate(47.3 470.9 749.7)" fill="#F95D6F"/><circle cx="482" cy="740.8" r="5.1" transform="rotate(47.3 482 740.8)" fill="#F95D6F"/><circle cx="535.4" cy="715" r="5.1" transform="rotate(47.3 535.4 715)" fill="#F95D6F"/><circle cx="524.8" cy="746.9" r="5.1" transform="rotate(47.3 524.8 746.9)" fill="#F95D6F"/><circle cx="474.4" cy="680.3" r="5.1" transform="rotate(47.3 474.4 680.3)" fill="#F95D6F"/><circle cx="456.4" cy="717.6" r="5.1" transform="rotate(47.3 456.4 717.6)" fill="#F95D6F"/><circle cx="479.4" cy="717.1" r="5.1" transform="rotate(47.3 479.4 717)" fill="#F95D6F"/><circle cx="712.9" cy="602.9" r="56.3" transform="rotate(-48.2 712.9 603)" fill="#D92A37"/><circle cx="673.2" cy="587.2" r="5.1" transform="rotate(-48.2 673.2 587.2)" fill="#F95D6F"/><circle cx="702.5" cy="584.8" r="5.1" transform="rotate(-48.2 702.5 584.8)" fill="#F95D6F"/><circle cx="733.6" cy="639.8" r="5.1" transform="rotate(-48.2 733.6 639.8)" fill="#F95D6F"/><circle cx="755.1" cy="588.4" r="5.1" transform="rotate(-48.2 755.1 588.4)" fill="#F95D6F"/><circle cx="737.4" cy="618.8" r="5.1" transform="rotate(-48.2 737.4 618.8)" fill="#F95D6F"/><circle cx="727.5" cy="608.6" r="5.1" transform="rotate(-48.2 727.5 608.6)" fill="#F95D6F"/><circle cx="696.7" cy="557.9" r="5.1" transform="rotate(-48.2 696.7 557.9)" fill="#F95D6F"/><circle cx="729.4" cy="565.4" r="5.1" transform="rotate(-48.2 729.4 565.4)" fill="#F95D6F"/><circle cx="668" cy="621.9" r="5.1" transform="rotate(-48.2 668 622)" fill="#F95D6F"/><circle cx="706.8" cy="636.3" r="5.1" transform="rotate(-48.2 706.8 636.3)" fill="#F95D6F"/><circle cx="704.1" cy="613.4" r="5.1" transform="rotate(-48.2 704.1 613.4)" fill="#F95D6F"/><circle cx="287.9" cy="451.6" r="23.3" fill="#27731B"/><circle cx="287.9" cy="451.6" r="16.7" fill="#30972A"/><circle cx="505.3" cy="238.3" r="23.3" fill="#27731B"/><circle cx="505.3" cy="238.3" r="16.7" fill="#30972A"/><circle cx="653.8" cy="742.6" r="23.3" fill="#27731B"/><circle cx="653.8" cy="742.6" r="16.7" fill="#30972A"/><circle cx="329.4" cy="728.4" r="23.3" fill="#27731B"/><circle cx="329.4" cy="728.4" r="16.7" fill="#30972A"/><path d="M266.6 378.7c-14.2 13-22.1 9.4-24.3 6-8.6-9 0-20.7 16.2-28.3 13-6.1 10.8-8.3 8.1-8.7-5.4-1.3-14.7-5.4-14.7-13.1 0-9.2 4-13 8.6-17.3 6.1-5.5 17.3-10.6 34-6.6 13.4 3.3 23.5 17.3 26.8 23.9 4.3 10.6 12.7 32.4-11.1 47-23.8 14.8-27.3-10.4-27.9-12.6-2.5-9.1 2-6.6-15.7 9.7z" fill="#F5EFCD"/><circle cx="311.2" cy="343.2" r="3" fill="#E0D7A9"/><circle cx="269.6" cy="338.1" r="3" fill="#E0D7A9"/><circle cx="291.9" cy="341.1" r="4.1" fill="#E0D7A9"/><circle cx="313.2" cy="364.5" r="4.1" fill="#E0D7A9"/><circle cx="287.9" cy="322.9" r="6.1" fill="#E0D7A9"/><circle cx="270.7" cy="319.9" r="4.1" fill="#E0D7A9"/><circle cx="296" cy="360.4" r="4.1" fill="#E0D7A9"/><path d="M377.6 431.3c2.4-19 10.7-21.5 14.6-20.4 12.4 1.4 13.4 15.8 6 32.1-6 13-2.9 13.4-.6 11.9 5-2.5 14.7-5.4 19.8.5 5.9 7 5.3 12.5 4.6 18.7-1 8.2-6.3 19.3-21.6 27-12.3 6.2-29 2.1-36-.7-10-5.4-30.6-16.5-22-43.1 8.6-26.7 27.6-9.7 29.5-8.5 7.8 5.3 2.7 6.4 5.7-17.5zM364.3 692.6c.4 19.2 8.4 22.5 12.4 21.8 12.6 0 15-14.4 9.3-31.3-4.5-13.6-1.4-13.6.7-11.9 4.7 3 14 7 19.7 1.6 6.6-6.3 6.6-12 6.5-18.1-.2-8.3-4.2-19.9-18.7-29.2-11.6-7.4-28.7-5-35.8-3-10.6 4.3-32.2 13.3-26.4 40.7 5.8 27.3 26.4 12.4 28.4 11.4 8.4-4.5 3.4-6 4 18z" fill="#F5EFCD"/><circle transform="scale(-1 1) rotate(-46.3 563.3 737.6)" fill="#E0D7A9" r="3"/><circle transform="scale(-1 1) rotate(-46.3 578.2 788.7)" fill="#E0D7A9" r="3"/><circle transform="scale(-1 1) rotate(-46.3 570.6 761)" fill="#E0D7A9" r="4.1"/><circle transform="scale(-1 1) rotate(-46.3 587.1 724.6)" fill="#E0D7A9" r="4.1"/><circle transform="scale(-1 1) rotate(-46.3 551.3 775)" fill="#E0D7A9" r="6.1"/><circle transform="scale(-1 1) rotate(-46.3 556.3 796.6)" fill="#E0D7A9" r="4.1"/><circle transform="scale(-1 1) rotate(-46.3 591 746.7)" fill="#E0D7A9" r="4.1"/><path d="M595.7 640.5c7.2 17.8 1 24-2.9 24.9-11.6 4.8-19.4-7.4-20.8-25.2-1-14.3-4-13-5.2-10.6-3.2 4.5-10.3 11.8-17.5 9-8.5-3.2-10.8-8.4-13-14.1-3.1-7.7-4-19.9 5.8-34.1 7.7-11.4 24.4-15.9 31.7-16.7 11.5-.2 34.9-.4 40.2 27 5.3 27.6-19.5 21.9-21.7 21.7-9.4-.9-5.5-4.2 3.4 18z" fill="#F5EFCD"/><circle cx="578.3" cy="586.2" r="3" transform="rotate(-69.3 578.3 586.2)" fill="#E0D7A9"/><circle cx="558.9" cy="623.3" r="3" transform="rotate(-69.3 558.9 623.3)" fill="#E0D7A9"/><circle cx="569.6" cy="603.5" r="4.1" transform="rotate(-69.3 569.6 603.5)" fill="#E0D7A9"/><circle cx="598.9" cy="591.8" r="4.1" transform="rotate(-69.3 599 591.8)" fill="#E0D7A9"/><circle cx="551.1" cy="600.9" r="6.1" transform="rotate(-69.3 551.1 600.9)" fill="#E0D7A9"/><circle cx="542.2" cy="615.9" r="4.1" transform="rotate(-69.3 542.2 615.9)" fill="#E0D7A9"/><circle cx="589.1" cy="606.5" r="4.1" transform="rotate(-69.3 589 606.5)" fill="#E0D7A9"/><path d="M500.7 348.7c-18.4-3-23.5 3.8-23.7 7.6-3 11.8 10 16.6 27.5 14.3 14-1.8 13.2 1 11 2.7-4 4-10 12-6.2 18.1 4.4 7.3 9.7 8.4 15.7 9.4 7.9 1.3 19.8-.4 32.2-12.3 10-9.5 11.9-25.8 11.6-32.8-1.5-10.7-4.7-32.5-32.2-32-27.5.6-18.3 22.5-17.8 24.6 2.2 8.5 5 4.2-18 .4z" fill="#F5EFCD"/><ellipse rx="3" ry="2.8" transform="scale(1 -1) rotate(31 915.8 824.7)" fill="#E0D7A9"/><ellipse rx="3" ry="2.8" transform="scale(1 -1) rotate(31 945 752.2)" fill="#E0D7A9"/><ellipse rx="4.1" ry="3.8" transform="scale(1 -1) rotate(31 928.8 791)" fill="#E0D7A9"/><ellipse rx="4.1" ry="3.8" transform="scale(1 -1) rotate(31 879 818.4)" fill="#E0D7A9"/><ellipse rx="6.1" ry="5.7" transform="scale(1 -1) rotate(31 961.5 792.1)" fill="#E0D7A9"/><ellipse rx="4.1" ry="3.8" transform="scale(1 -1) rotate(31 975.2 762.5)" fill="#E0D7A9"/><ellipse rx="4.1" ry="3.8" transform="scale(1 -1) rotate(31 894.4 789.2)" fill="#E0D7A9"/><path d="M92.2 713.2V520l818-219.5v191.6l-818 221z" fill="#34AE54"/><path d="M72 573.3l20.8-6.1v146.3l91.7 21.4-112.5 29V573.3z" fill="#2F9C4E"/><path d="M0 594.3l73-20.8v190.1L0 783.9l47.6-108.5-47.6-81zM928.5 534.7V343.6l71.5-18.3-47.6 107.5 47.6 81-71.5 20.9z" fill="#34AE54"/><path fill-rule="evenodd" clip-rule="evenodd" d="M703.4 390.5c-.7.3-1.7.6-2.2.6-1.2 0-5.5 3-6.8 4.7-1.8 2.4-2.1 4.4-2 11.8.1 8.5 0 8.8-3 9.5a2270.3 2270.3 0 01-18.4 4.4l-4.5 1a813.6 813.6 0 00-14 3l-5 .8c-9.4 1.3-13.5 4.4-13.5 10.3 0 5 3.2 7.7 10.3 8.7 3.6.4 4 .6 3 1a25.8 25.8 0 00-9 7.6 20 20 0 01-3.6 3.5 24.2 24.2 0 00-9 18.5c.2 6 1.8 13.5 3.7 17.2 1 2 .9 2.1-.8 1.5-2.9-1.2-12.2-.5-18.6 1.3-5 1.4-5 1.4-2.7-3 5.5-10.2 8.1-13.7 11-14.5 5.6-1.6 8.5-7.7 6.1-12.6a21 21 0 00-5.5-6c-.3 0-1-.3-1.6-.8-1.5-1-7.2-3.5-8.3-3.5-.4 0-1.4-.3-2.1-.7-1.4-.6-6 .3-7.9 1.7a136.4 136.4 0 01-17.6 8 113.5 113.5 0 01-28.4 7.8c-7 1.1-12.2 4.8-12.2 8.8 0 2.3.1 2.3-2.2.7-8.2-5.5-13.4-5.7-22.8-.8a51.4 51.4 0 01-8.3 3.5 198.9 198.9 0 01-25.5 8.8c-16.2 2.6-20.6 5-20.7 11.3-.3 8.3 8.5 11.2 24.1 7.9a292.8 292.8 0 019.1-2c1.8-.7 1.8-.3.4 2l-2.5 4.2c-3.2 5.6-9.3 12-7.4 7.8 1-2-1-7.1-3.2-8.6-6.7-4.3-13-1.5-16 7.3a58.5 58.5 0 01-5.7 12.7c-1 0-3.5-7.5-3.8-11.2-.1-1.5-.5-3.3-.8-4a7 7 0 01-.6-2.5c0-1.8-1.3-4.6-2.7-5.9l-1-1 1.7-1.8c5-5 4.7-11.9-.8-16.4-2-1.7-7-4-8.5-4-2.5 0-3.7-1.6-3.7-4.6 0-3-5.6-10-9.7-12.4a46 46 0 00-27.3-2.7c-1.5.4-4 1-5.7 1.2a19 19 0 00-3.6.8c-.4.2-2 .7-3.6 1l-3.6 1.2-5 2c-4.9 1.8-7.7 3.2-13.8 6.7a57.3 57.3 0 00-10.9 6.8l-3.9 2.6a133 133 0 00-26.4 27.4c-7.8 11.5-10.9 25-7.1 32l.7 1.4-2.7-.2c-2.7-.2-5.9.4-5.9 1.2 0 .2-.2.4-.6.4-1.3 0-4.9 6-5 8.5 0 .5-.2 1.7-.6 2.6a53.5 53.5 0 00-2.2 7l-1.7 5.3c-1.3 4.3-1.9 5.4-2 3.4 0-.7-.4-2.6-1-4.2-.6-1.7-1-3.4-1-3.9 0-.4-.8-1.8-1.7-3a8.8 8.8 0 01-2-4.3c-1.6-12.3-13.5-18-29.4-14.3a239.2 239.2 0 01-8.8 2l-3.3 1c-1.3.2-3 .8-3.8 1.3-.8.4-1.7.8-2 .8-.2 0-1.4.6-2.6 1.4l-3.4 2a49.9 49.9 0 00-14 15.7c-3 6.2-3.2 6.8-3.8 10l-1 4.4a34.7 34.7 0 005.6 23.4c1.6 2.1 1.6 2-1.6 2.8-6.4 1.4-9.3 2-10 2.3-.5.3-.7-.2-.9-4.1a190.3 190.3 0 00-5-35 963.4 963.4 0 00-4.5-22.3c-.3-1.2-.7-3.4-.8-5-.6-8.1-11-13.6-18.5-9.6a6 6 0 01-2.3.6c-1.2 0-6.4 2.6-8.1 4a23.3 23.3 0 00-7.8 8 32 32 0 00.4 16.2l1 5 1.7 9.6a358.7 358.7 0 012.8 14.8c.2.6.6 3.3.9 6a72.8 72.8 0 011.6 15.3l.2 7.8-1.3.9a43 43 0 00-16 9.8c-6.7 7-4.2 17.3 5 20.7 2.6.9 11.8 1 13.4.2.5-.3 2-.8 3.2-1a43 43 0 0020.5-12c3.6-3.6 5-4.2 11.2-5.2l4.3-.9c.6-.2 2.9-.5 5.1-.8a200.5 200.5 0 0151.5-.4c4.2.8 11.3.7 13-.1l3-1.4c9.8-4.5 13.5-16.5 7-23.3l-1.9-2 2.1-.3c5.2-.7 13-6.3 15.7-11.3l2.3-3.8c.3-.3 1.2-2.3 2-4.4l2-4.3c.3-.2.4-.8.4-1.4 0-.5.2-1 .5-1.2.2-.1.4-.8.4-1.4a147 147 0 005.8-21.3c.7-3.1.7-3.5 0-5.4-1-2.7-1-2.6 1.5-1.8 6.6 2 12.5-3.3 12.8-11.8.2-5.2 3.3-11.7 8.2-17.4l1.7-2 1.2-1.4.5 1.2.7 3.5.5 3.9c.2 1.3 0 1.7-1.7 3.4-5.1 5.3-2.4 12.7 5.8 15.9.8.3 1.2.8 1.4 1.8.4 1.8 4.6 11 6.1 13.5 9.2 14.8 23.3 20.4 37.3 14.6 5.3-2.2 9-7.7 7.3-11-.3-.7-.6-1.5-.6-1.9a37 37 0 00-5.2-8 41 41 0 01-6-15.7c0-.3 2-1.6 4.3-3a23.7 23.7 0 004.9-3.2c.3 0 .9-.4 1.3-.8a90.8 90.8 0 0010.8-8.2l1.4-1.3.7 2.9c3.9 15.1 6.9 21 13.6 26 12.8 10 31.6 7.3 39.8-5.7l1.6-2.5c.1-.1 1 .3 1.8.9 7.5 5 13.6 5.6 21 2.2a25 25 0 012.6-1l2.2-1.5a83.2 83.2 0 0119.7-8.3c5-1.5 19.6-1.8 22.7-.4 6.5 2.9 14.4-2.7 14.4-10.1v-1.7l1.4.8c4.4 2.6 10.5 2.5 16.5-.3l2-.8a71 71 0 0119.8-9.2c6.4-2.2 18.1-2.8 24.3-1.3 4.4 1 5.6 1.1 6.6.7.5-.3 1.5-.6 2.2-.8 4.2-.9 7.6-8.4 6-13-.8-2.4-.6-2.6 1.2-1.3 10.6 7.7 31.9 4 42.9-7.3a37.1 37.1 0 008.2-14.5c4-9.4.4-27.2-7.4-35.2l-3.4-3.5 1.4-.4c.8-.3 2.5-.8 4-1l3.4-.9c2.9-1.2 2.8-1.3 2.8 2.9a86.5 86.5 0 003 20.5c0 6 7 17 14.4 23 18 14.5 45.6 4.8 30.3-10.6-9-9-10.6-14.3-11-35.1l-.3-12.5 4-1.3c2.2-.8 6-2 8.3-3l4.2-1.4-1.5 1.8a40.7 40.7 0 00-5.6 38.3 22.1 22.1 0 0012.2 11.7l3.2 1.3c1.7 1 13.4.9 15.9 0 1-.4 2.8-1 4-1.2 4.7-1.1 10.5-5.4 13.4-9.9 1.7-2.5 1.8-2.5 3.8-1a25 25 0 0026.7 2.1c6.5-3.6 12.9-13.8 17-27l2.1-6.7 1.7-7a148 148 0 011.6-6.2 9.3 9.3 0 00-8-11.6c-6-.6-9.7 2.5-11.6 9.5a187.8 187.8 0 01-4.7 15.9l-.9 2.7c-.3 1.4-1 1.5-1 .1 0-.4-.5-2.2-1.1-4l-1.3-4.2c-.1-.6-.9-2-1.7-3-1-1.3-1.6-2.8-2-4.6a18.7 18.7 0 00-1.7-5.4c0-2.6-8.4-8.9-11.7-8.9-1 0-4.4-1.2-3.5-1.2 3.2-.2 5.7-7.2 3.9-11-2.3-4.9-11.1-6.7-16-3.3-.2.2-1.5.6-2.8.9a104.7 104.7 0 01-12.9 3.7c-1.3.3-2.7.8-3.2 1l-3.4 1a21 21 0 00-3.8 1 53.4 53.4 0 00-8 2.3c-15 4.7-15.5 4.8-15.5 3.5 0-3.4-2.4-9-4.7-10.9-4.2-3.4-16-5.8-20-4zm9 2.9c6.3 1.7 7.6 3.6 8 11.9l.2 5.3h1.3c.7 0 3.8-.8 6.9-1.8a254.5 254.5 0 0115.6-4.6 8447 8447 0 0122.6-6.6c15.4-4.6 16.8-5 18.2-4.3 2.7 1.3 1.6 4-2.4 6-8 4.2-42.8 17.7-58.2 22.6-4.6 1.4-4.3.4-4.3 14.8 0 23.2 3 32.8 12.8 42.2 5.6 5.4 3.6 7.8-6.3 7.8-19.6 0-31.3-17.5-31.3-47.1 0-9.4.6-8.9-7.8-6.6-19.8 5.3-47.6 6-49.7 1.3-1.1-2.4 1-3.9 6.4-4.8a520 520 0 0051.1-11.9c.5-.8 1-10 .7-14.7-.3-6.1.5-7.7 5.3-9.3 2.4-.9 8-1 11-.2zm79.2 17.1c5.4 2 9.4 9.1 7 12.3-1 1.2-.6 2.2.9 2.2 2 0 3.3 2.2 5.2 8.6 4.4 14.8 6.5 18 8.7 13 1.4-3 6.8-19.3 8.8-26.3 2.3-8.2 4.5-10.3 7.9-7.7 3.6 2.9-5.7 33-13.3 42.6-7.4 9.3-20 9-29.4-.7-3.1-3.1-3.3-3-5.5 1.4-4.3 9.1-10.6 13-21.8 13.7-15 .8-23.2-8.7-21.4-24.5 2-17 12.3-27.7 31.3-32.8 12.4-3.3 16.6-3.6 21.6-1.8zm-9 6.8c-10.3 3.1-18.4 15.6-18.5 28.8-.2 9 3.3 16.7 6.3 14.2s6.2-14.9 6.2-23.8v-5.2l2-1.8c1.8-1.8 3.1-2.3 11.3-4.7 2.2-.7-3-8-5.6-7.9l-1.7.4zm-110.7 27.4c10.2 4.6 15.6 21.6 11 35.1-7.2 21.8-39.8 28-49.6 9.4-6.2-11.8-4.6-25 3.8-30.7 1.6-1 3-2.5 4-4 2.4-3.7 6.5-6.4 14-8.8 7.3-2.5 12.8-2.8 16.8-1zm-10.6 9.1c-1.2.5-1.4 1.1-1.8 5.5-.1 2.3-.6 4.6-1.1 5.8l-.9 2.1 1 5c3 15.4 5.8 19.5 10.2 14.8 7.6-8.3 1.3-36.7-7.4-33.2zm-55 4.5c11.6 3.9 14.3 8.6 7 12.1-5 2.4-8.1 7-16.1 22.8-6.2 12.2-6.5 11.3 2.3 8.3 18.5-6.4 28.4-6.3 30.8.3 2.4 6.8-.5 10.6-7 9-9.4-2.2-18-1.8-27.3 1.2a95.8 95.8 0 00-18.4 8c-7.8 5-13.8 5.2-19.7.9-5.8-4.3-5.5-8.9.8-11 7-2.4 13.2-9.7 22.7-27 4.3-7.9 4.3-8.1-.3-6.6-19 6.3-36.8 8-36.8 3.4 0-2.4 3-3.8 11.6-5.2 7.5-1.3 9-1.7 17.8-4.7a193.6 193.6 0 0029.4-12.5l3.3 1zm61.3 14.6c.3 4.7-.1 7.2-.7 4.5-1-4.5-1-6.1-.6-8.2.7-2.8 1-1.8 1.3 3.7zm-246.2-.5c7.2 2.3 11.1 7.2 11.4 14.2 0 2 .1 3.6.2 3.8 0 .2 1.4.4 3.1.6 9.5.9 14.9 5.5 11.8 10.1-2 3-8 5-16.8 5.4-5.2.3-4.3-.3-8.7 5.7a89 89 0 01-28.6 24c-5.5 2.7-5.4 2.5-4.4 7.8 1.7 8.9 3.7 14 7.5 19 5.8 7.4 5.6 9.4-.7 11.5-14 4.8-26.6-3.4-33.6-21.9-3-7.9-3-7.8-5.6-8.5-5.4-1.3-6.9-6.1-2.2-7.4 2.5-.6 2.7-1.1 2-4.3-.4-1.5-1-4.8-1.4-7.3a2272.7 2272.7 0 00-1.9-13.6c0-2.7-1-2.3-5.2 2-10.2 10.6-16 20.3-16.3 27.7l-.2 4.6-1.6 1.5c-5 4.6-10.3-2.3-8.5-11 5-23.3 37.8-52.6 68.8-61.4 11.9-3.4 24.8-4.4 31-2.5zm106.7 8.7c10.7 3.9 13 8.7 5.8 12-3 1.3-4.8 3-8.1 8a319 319 0 00-12.8 24.4c-.3.8.8.6 7-1.5 21.6-7.1 29.9-6.5 31.5 2.3 1.2 6.2-2 8.6-8.7 6.7-10.9-3-31.6 1.3-44.3 9.4-8.6 5.4-15 5.4-20.8.1-4.8-4.3-4.2-7.7 1.7-10 7.8-3.2 12.3-8.7 23.6-28.6 3.7-6.7 3.8-6.6-4-4.2-13.6 4-28.5 6.2-32.3 4.6-4.8-2-.5-5.8 8.2-7a85 85 0 0012.4-2.7c8.4-2.3 22.1-7.8 31.1-12.3 5.2-2.6 5.7-2.7 9.7-1.2zm-138 4.2c-6 1.6-12.2 4.3-12.3 5.2 0 .3 1 1 2.2 1.6 3.1 1.7 3.5 2.6 4.3 11 2.3 24.8 2 23.8 6.4 19 16.8-18.6 16.4-41.7-.7-36.8zm185 2.8c0 .5-4.5 7.5-7.3 11.3a20.6 20.6 0 01-11.2 8.3c-1.8.4-5.7 4.5-6.1 6.3-.6 3-.1 2.8-6.6 2.6a36 36 0 00-12.7 1.3c-.4.2-1.7.6-2.8.7l-2 .4 2-4.1a61.2 61.2 0 014-7.2c1.3-2.5 5.3-6.3 7.4-7a9 9 0 006.3-8.4V491l5.5.1c3 .1 6.7 0 8.3-.3 5.6-.8 12-2 13.1-2.5 1.4-.6 2.2-.7 2.2-.2zm-176.5 6.5c1.5 2.8.3 8.6-3.4 16.1l-1.9 3.9-.8-6c-1-8.3-1.5-11.9-1.8-13-.6-1.7 7-2.7 8-1zm43.4 16.8c4.5.8 5.2 2 6.6 11 1.3 8 3.6 13.3 8 18.2 1.1 1.3 1.8 1.8 2.3 1.6 1.8-.7 6.9-10.2 10-18.6 2.2-6.1 3.2-7.5 5.5-6.9 3.1.8 3.5 2.8 1.5 9.3-5 17-11.6 26.4-20 28.5a23.5 23.5 0 01-25.8-9.4c-5-7.5-9.2-27.7-6.3-30.7 2.6-2.7 11.8-4.2 18.2-3zm-248.3 33.3c2 1 3 2.6 3 4.7 0 1 .4 3.7 1 6a296.3 296.3 0 012.8 14.4c5.8 27.8 6.6 35.8 5.6 51.6-.2 1.8-.7 1.8 8-.5a260 260 0 0113-3c24.7-5.1 49-6.8 58.2-3.9 7 2.2 8.4 8.8 3 14.3-4.2 4.1-6.8 4.7-15.8 3.6a192 192 0 00-63.7 2.2c-9.2 1.8-9.6 2-12.3 5-9.5 10.5-26.4 16.7-34.4 12.4-7.7-4-2.3-12.1 12.2-18.3 5.5-2.3 5.4-2.3 5.6-10.6.2-6.8.1-7.1-2-22a229 229 0 00-2.2-12.1l-2.1-11c-3.3-17.2-3.7-20.3-2.9-22.5 2.5-6.5 17.4-13.2 23-10.3zm85.1 9c5.1 2.4 8.8 9.5 6.4 12-1 1.2-.6 2.4.9 2.4 1.7 0 3.4 2 4.3 5.3 3.7 12.8 6.2 18.7 7.7 18.7 1.6 0 4.7-8.4 11-29.4 2.2-7.6 4.4-9.6 7.6-7 4.1 3.2-6.4 35-14.5 44.1-7 7.7-19 7-27.7-1.7-3.8-3.7-3.8-3.7-5.8.8-4.5 9.7-11.3 13.6-24 13.6-13 0-19.3-6.7-19.3-20.6 0-17.7 10.8-31 29.6-36 12.9-3.6 19.4-4.1 23.8-2.1zM266 562a30.9 30.9 0 00-14.3 19.5c-2.4 9.4 0 22.3 4 22.3 3.5 0 8-14.9 7.5-24.2-.4-6.3 2.5-9.2 11.4-11 2.5-.6 2.8-1.2 1.8-3.5-2.2-4.9-5-5.7-10.3-3.1zm-7.4 30c-.4.3-.5.3-.3-.3l.4-1.8c0-.6 0-.5.2.4.1.6 0 1.4-.3 1.7zm16.7 17.4c-1 .1-1.4-.2-1-.8.1-.3.5-.3 1 0 1 .6 1 .6 0 .8zm-101.1 33.6c-1.4.7-2.8 2.2-2.8 2.8 0 .8 1 .7 2.3-.3 2-1.7 2.4-3.5.5-2.5z" fill="#098439"/><path fill-rule="evenodd" clip-rule="evenodd" d="M701.5 393.6c-4.8 1.6-5.6 3.2-5.3 9.3.2 4.6-.2 14-.7 14.7a520 520 0 01-51.1 11.9c-5.5.9-7.5 2.4-6.4 4.8.7 1.6 2.3 2 10.8 2.6 13.5 1.1 24 0 38.9-3.9 8.4-2.3 7.8-2.8 7.8 6.6 0 29.6 11.7 47 31.3 47 10 0 11.9-2.3 6.3-7.7-9.9-9.4-12.8-19-12.8-42.2 0-14.4-.3-13.4 4.3-14.8a645.7 645.7 0 0058.2-22.5c4-2.1 5-4.8 2.4-6-1.4-.7-2.8-.4-18.2 4.2a4434.8 4434.8 0 01-45.1 13h-1.3l-.3-5.3c-.3-7-1.1-9-4.4-10.7a22.6 22.6 0 00-14.4-1zm81.2 16a112 112 0 00-21.8 5.6c-25.4 10.6-31 49.2-7.8 54.1 12 2.6 23.8-3 28.8-13.4 2.2-4.5 2.4-4.5 5.5-1.4 9.4 9.8 22 10 29.4.7 7.6-9.5 17-39.7 13.3-42.6-3.4-2.6-5.6-.5-8 7.7-1.9 7-7.3 23.4-8.7 26.4-2.2 4.9-4.3 1.7-8.7-13-1.9-6.5-3.2-8.7-5.2-8.7-1.5 0-2-1-1-2.2 1.2-1.5 1.1-3-.4-6.1-2.6-5.6-7.8-8-15.4-7zm3.7 8.2c2.4 1.5 5 6.6 3.5 7-8.2 2.4-9.5 3-11.3 4.7l-2 1.8v5.2c0 11.9-4.4 25.2-8 24-6.6-2.4-5.9-22.9 1.2-33.2 4.9-7 13-11.7 16.6-9.5zm-125.5 26.1c-9.2 2-17 6.2-19.8 10.6-1 1.5-2.4 3-4 4-14.4 9.8-7.2 38 10.5 41.3 6.9 1.3 17.2-.9 23.7-5 22.7-14.5 14.2-56.3-10.4-50.9zm3.8 10c8.6 3.8 10 32.5 1.7 34.5-3.5 1-5.4-2.8-8-16.2l-.9-5 .9-2c.5-1.3 1-3.6 1.1-5.9.4-4.4.6-5 1.8-5.5 1.3-.5 1.8-.5 3.4.2zm-63.5 4l-2.8 1.5a193.6 193.6 0 01-24.7 10.4c-8.9 3-10.3 3.4-17.8 4.7-8.6 1.4-11.6 2.8-11.6 5.2 0 4.6 17.7 3 36.8-3.4 4.6-1.5 4.6-1.3.3 6.6-9.5 17.3-15.6 24.6-22.7 27-6.3 2.1-6.6 6.7-.8 11 5.9 4.3 11.9 4 19.7-1 3.7-2.3 11-5.4 18.4-7.9 9.3-3 18-3.4 27.2-1.2 6.6 1.6 9.5-2.2 7-9-2.3-6.6-12.2-6.7-30.7-.3-8.8 3-8.5 3.9-2.3-8.3 8-15.9 11.1-20.4 16.1-22.8 7.3-3.5 4.6-8.2-7-12.1-3.4-1.2-3-1.2-5.1-.3zm-196 13.8c-35 3.8-77.5 36.8-83.5 64.7-1.8 8.6 3.5 15.5 8.5 10.9l1.6-1.5.2-4.6c.4-7.4 6.1-17.1 16.3-27.8 4.1-4.2 5.2-4.6 5.2-1.9l.6 5.3a2272.7 2272.7 0 012.7 15.6c.7 3.2.5 3.7-2 4.3-4.7 1.3-3.2 6.1 2.2 7.4 2.7.7 2.6.6 5.6 8.5 7 18.5 19.6 26.7 33.6 22 6.3-2.2 6.5-4.2.7-11.7-3.8-5-5.8-10-7.5-19-1-5.2-1.1-5 4.4-7.8a89 89 0 0028.6-23.9c4.4-6 3.5-5.4 8.7-5.7 8.8-.5 14.9-2.4 16.8-5.4 3-4.6-2.3-9.2-11.8-10.1a9.9 9.9 0 01-3.1-.6l-.2-3.8c-.5-11.3-10.6-16.7-27.5-14.9zm113.2 10.6c-9 4.5-22.7 10-31 12.3a85 85 0 01-12.5 2.6c-8.7 1.3-13 5.1-8.2 7.1 3.8 1.6 18.7-.5 32.2-4.6 8-2.4 7.8-2.5 4 4.2-11.2 19.9-15.7 25.4-23.5 28.5-6 2.4-6.5 5.8-1.7 10.1 5.9 5.3 12.2 5.3 20.8-.1 12.7-8 33.4-12.4 44.3-9.4 6.8 1.9 9.9-.5 8.7-6.7-1.6-8.8-9.9-9.4-31.4-2.3-6.3 2.1-7.4 2.3-7.1 1.5a319 319 0 0112.8-24.3c3.3-5 5-6.8 8.1-8.2 7.2-3.2 5-8-5.8-12-4-1.4-4.5-1.3-9.7 1.3zm-120.7 3.1c9.6 4 6.2 22-7 36.6-4.4 4.9-4 5.9-6.4-19-.8-8.3-1.2-9.2-4.3-10.9-1.2-.6-2.2-1.3-2.1-1.6 0-.9 6.3-3.6 12.1-5.2a14 14 0 017.7.1zm33.5 26c-9 1.5-9.8 3.8-7 17.7 3.5 17.3 11.8 26.1 24.8 26.1 10.6 0 16.7-4.5 21.9-15.9 5.2-11.4 7.3-19.7 5.5-21.5-3-3-5-1.4-7.6 5.8-3 8.4-8.1 17.9-9.9 18.6-.5.2-1.2-.3-2.4-1.6a33.2 33.2 0 01-7.9-18.2c-1.4-9-2.1-10.2-6.6-11-2.6-.5-7.9-.5-10.8 0zm-246.5 33.5c-6.5 2-12.6 6.4-14 10.1-.8 2.2-.4 5.3 2.9 22.5a1673 1673 0 014.2 23c2.2 15 2.3 15.3 2.1 22-.2 8.4-.1 8.4-5.6 10.7-14.5 6.2-20 14.3-12.2 18.3 8 4.3 25-1.9 34.4-12.4 2.7-3 3.1-3.2 12.3-5a192 192 0 0163.7-2.2c9 1.1 11.6.5 15.8-3.6 5.4-5.5 4-12-3-14.3-9.3-2.9-33.5-1.2-58.3 4l-3.9.7a260 260 0 00-9 2.2c-8.7 2.3-8.2 2.3-8 .5 1-15.8.2-23.8-5.6-51.6a599.5 599.5 0 01-3.8-20.4c0-4.7-5.3-6.7-12-4.5zm79.5 8.6c-17.6 4-24.3 7.4-30.8 15.6-10.6 13.3-11 32.6-1 40 4 3 5.5 3.4 12.2 3.4 12.8 0 19.6-3.9 24-13.6 2.1-4.5 2.1-4.5 5.9-.8 8.7 8.7 20.7 9.4 27.7 1.7 8.1-9 18.6-41 14.5-44.1-3.2-2.6-5.4-.6-7.6 7-6.3 21-9.4 29.4-11 29.4-1.5 0-4-5.9-7.7-18.7-1-3.2-2.6-5.3-4.3-5.3-1.5 0-2-1.2-1-2.3 2.5-2.6-1.2-9.7-6.3-12a29.5 29.5 0 00-14.6-.3zm10 8.3c3.4 3.4 3.5 6 .4 6.7-8.9 1.8-11.8 4.7-11.4 11 .4 7-2.7 20.2-5.6 23.3-4.6 5-8.8-10-6-21.4 3.5-13.5 17-25.2 22.5-19.6zm-99 81.9c-.5 1-2.5 2.6-3.2 2.6-1 0-.7-1 .4-2 2-1.9 3.7-2.2 2.9-.6z" fill="#FBFBFB"/></svg>