<svg version="1" xmlns="http://www.w3.org/2000/svg" width="933.333" height="933.333" viewBox="0 0 700.000000 700.000000"><path d="M333.8 79.5c-.2.2-3.9.6-8.3 1-4.4.3-9.6.9-11.5 1.1-7.1 1-21.4 3.5-22 3.9-.4.2-1.7.6-3.1.8-26.1 4.9-62.4 20.6-89.9 39-19.2 12.9-45 36.6-60 55.1-18.9 23.4-37.6 58.2-46.5 86.6-4.9 15.6-9 34.1-10.9 49.9-.6 4.4-1.6 21.9-2.1 35.3-.1 4-.3 7.6-.4 8 0 .4-2.6 1.4-5.6 2.3-4.9 1.4-5.5 1.9-5.6 4.3 0 1.5-.1 8.8-.2 16.2l-.2 13.5-21.5 6.2c-11.8 3.5-25.5 7.5-30.5 8.9-5 1.4-9.4 3-10 3.5-1.2 1.1 1.9 7 20.3 38.8 5.6 9.6 10 17.7 9.8 18-.2.3-6.6 14.8-14.1 32.1S7 537.4 5.8 539.8c-1.1 2.4-1.9 4.5-1.7 4.6.2.2 3.8-.5 7.9-1.5 36.8-9.5 74.9-19.2 80-20.4 6-1.5 26-6.8 32.7-8.8l8.1-2.4 8.2 9.9c23.5 28 56.1 54.2 86.9 69.7 21.4 10.7 50.5 20.6 72.6 24.6 17 3 26.9 3.8 48 3.9 22.7 0 34.6-.9 50.1-4 7.1-1.4 14.1-2.7 15.7-3 5.4-1 30.4-9.3 40.2-13.4 28.5-11.9 55.4-29.2 78.3-50.5 21.2-19.7 37.5-40 52-64.8 2.9-4.8 5.2-8.9 5.2-9.1 0-.2 2.2-5 4.9-10.7 7.2-15.3 15.8-39.5 17.7-49.9.3-1.4.7-3.3 1-4.2.7-2.5 1.3-5.4 3-16.6 1.6-10 1.8-10.4 4.8-11.8 1.7-.8 18.1-5.7 36.4-10.9 18.3-5.2 34.2-10 35.3-10.5 2.2-1.2 2.6-.2-8.1-19-2.1-3.6-4.7-8.2-5.9-10.3-1.1-2-2.9-5.2-4-7-8.8-15.2-10.9-19-10.7-20 .8-3.8 2-7.5 3.2-9.7 1.4-2.7 25.7-59.3 26.7-62.3.8-2.1 1.5-2.1-8.5.4-4.6 1.1-9.9 2.4-11.8 2.9-1.9.4-11.6 2.9-21.4 5.4-9.9 2.6-18.5 4.5-19.1 4.2-.9-.3-1.2-4.9-1.2-15.5 0-8.4-.3-15.4-.6-15.7-.2-.3-3.3.2-6.8 1.1-3.5 1-7.3 1.9-8.4 2.1-1.1.2-7.4 1.9-14 3.8-6.6 1.8-12.3 3.2-12.7 2.9-.4-.2-2.1-2.9-3.9-6.1-32.1-56.8-85.8-101.8-146.4-122.9-3.8-1.3-7.7-2.6-8.5-2.8-.8-.2-5.8-1.5-11-2.9s-11.7-3-14.5-3.5c-2.7-.6-5.9-1.2-7-1.5-4-.8-17.2-2.5-24.5-3.2-7.2-.6-39.7-1.3-40.2-.9zm41.7 45c6.1.7 20.4 3 24 3.8 33.6 7.7 66.3 23.5 93 45.1 18.1 14.6 39.3 38.8 51.3 58.7l2.2 3.6-10.8 2.8c-5.9 1.5-19 5-29.2 7.7s-19.2 5.1-20 5.3c-.8.2-4 1.1-7 1.9-3 .8-11.3 3-18.5 5-7.1 1.9-27.4 7.4-45 12.1-17.6 4.8-34.5 9.3-37.5 10.1-24.7 6.6-86.8 23.2-96.5 25.9-11.9 3.4-61.4 16.5-62 16.5-.2 0-.2-2.2 0-4.9.7-9.4-6.9-18.1-15.8-18.1-8.6 0-15.2 6.8-16.2 16.5-.2 2.1 2.7 9 4.6 11.1 1.9 2 1.9 2.2.2 2.7-2.6.7-41.8 11.3-55.3 14.9-6.3 1.6-11.8 3.2-12.1 3.4-1.7 1-1.8-3.9-.5-19.1.3-4.4.8-9.1 1-10.5.3-1.4.7-4.1 1-6 5.2-35 21.6-72.7 44-101.4 24.6-31.6 53.7-54.2 90.6-70.3 19.6-8.6 45.3-15.3 64.5-16.9 4.4-.3 8.1-.7 8.3-.9.6-.5 36.2.3 41.7 1zm122.7 151c1.8.7 4.4 6.2 3.5 7.2-.4.3-.2 1.4.3 2.4.8 1.5 1.5 1.6 4.2.8 9.5-2.9 34.5-9.9 37.6-10.5 2.7-.5 3.4-.4 3 .7-.6 2.1-12.8 7.8-29.6 13.8l-15.1 5.4.1 12.1c.1 13.5 1 16.9 7.1 24.8 3 3.9 3.3 4.9 2.2 5.8-2 1.7-9.4.9-13.5-1.3-8.9-4.9-11.9-11.3-13.5-29.1-.3-3.3-.7-6.1-.8-6.2-.2-.2-2.7.4-5.7 1.2-6.3 1.8-27.3 2.6-30.8 1.3-5.4-2.1-1-3.8 18.3-7.4 5.3-1 14.9-3.5 17.3-4.5 2-.9 2.2-1.6 2.2-8 0-7.1 0-7.1 3.3-8.5 3.1-1.3 6.6-1.3 9.9 0zm55 13.5c2 2 2.8 3.7 2.5 5-.3 1.1.1 2.4.8 3 .8.6 2.6 4.3 4 8.1 1.5 3.8 3 7.1 3.5 7.4.9.5 2.9-4.3 7-16.8 2.2-6.7 4.2-8.9 6.2-6.9 1.4 1.4-2.6 16.3-6.4 23.4-5.6 10.5-13.8 12.7-21.7 5.9l-3.4-2.9-2.9 4.3c-3.4 5.2-8.1 7.6-14.9 7.7-5.8 0-11-3.3-12.7-8-2.7-7.7 1.5-20.4 8.4-25.7 5.3-4 14.9-7.3 22.2-7.4 3.6-.1 4.9.4 7.4 2.9zm-82.5 22.7c5.5 3.6 7.9 17.4 4.2 24.3-3.8 7.2-8.9 10.7-16.7 11.7-9.9 1.1-16.6-3.8-18.1-13.4-1-6.8.1-9.9 5.6-15.6 8.8-8.9 18-11.5 25-7zM427 321c4.5 2.4 4.4 3.7-.7 8.7-4.2 4.2-13 18.9-12 19.9.2.2 3.9-.5 8.2-1.6 13-3.3 17.5-2.3 17.5 4.1v2.9l-9.3-.1c-9.6-.1-18.4 2-25.2 6-6 3.5-9.2 4.1-13 2.6-6.7-2.9-6.5-5.8.7-10.4 4.7-2.9 12.2-13.4 14.2-19.7l.6-2-8.4 2.1c-9.1 2.3-17.7 2.7-18.3.9-.4-1.3 2.2-2.4 14.2-5.7 5-1.4 12.6-4.1 17-6 7.7-3.3 10.9-3.6 14.5-1.7zm-127.4 9.6c1.3.9 3.2 3.8 4.1 6.5 1.3 3.5 2.3 4.9 3.6 4.9 1 0 2.8.5 4 1.1 6.5 3.5 3.7 7.9-5.8 9.2-4.9.7-7.5 1.6-7.5 2.7 0 .5-2.5 3.3-5.6 6.3-5.1 5.1-8.4 7.6-15.7 12.1-2.5 1.5-2.7 2.1-2.1 5.4.8 4.3 3.4 10.4 6.4 14.9l2.1 3.2-3 1.5c-6.7 3.5-14.2 1.1-19.4-6-2-2.7-4.1-6.6-4.8-8.7-.8-2.4-2.3-4.4-4.1-5.3-3-1.6-3.7-4.1-1.3-5 1.6-.7 1.3-7-.7-14.8l-.9-3.8-2.5 2.3c-4.2 3.9-9.7 13.1-11.1 18.3-.7 2.7-1.8 5.3-2.5 5.7-3.2 2-5.5-2.5-4.5-8.8 1.6-9.7 16.8-26.3 32.2-35.2 13.3-7.7 32.4-10.8 39.1-6.5zm75.1 7.6l2.4 2.4-4 3.2c-3.4 2.7-13.1 18.3-13.1 21.1 0 .5 2.6.1 5.8-.9 8.1-2.5 15.4-3.2 17.3-1.7 1.9 1.4 3.1 5.8 2.1 7.3-.4.6-4.2 1.1-9.2 1-12 0-15.1.8-29 7.5-4.5 2.2-9.9 1.7-12.2-1.1-2.6-3.3-2.2-4.7 2-6.9 2-1.1 4.4-2.8 5.2-3.8 3-3.5 7.7-10.8 10-15.2l2.2-4.4-2.4.7c-11.5 3.2-23.2 4.6-24.8 3-1.7-1.7.8-3 9.3-4.9 7.2-1.5 22.7-7.1 26.6-9.6 2.6-1.6 9.2-.3 11.8 2.3zm-59.6 25c1.7 7.1 4.6 12.9 6.6 13.5.8.3 3-3 5.4-8.1 2.3-4.7 4.8-8.6 5.5-8.6 2.5 0 2.1 4.3-1.2 12.5-4.2 10.3-10 14.3-18.8 13-8-1.2-13-8.6-15.1-22.1-.9-6.1 1-7.6 9.3-7.2l6.6.3 1.7 6.7zm260.5 7.4c-.3 5.3-.8 9.9-1 10.3-.3.3-.7 2.7-1.1 5.1-1.5 10.2-5 24.5-9.2 37C544 484.2 495 535.7 434.1 560c-9.9 3.9-27 9.3-32.7 10.4-1.6.2-6.3 1.2-10.6 2-11.7 2.3-21.7 3.1-40.8 3.1-15.4 0-33.4-1-35-2-.3-.1-2.7-.6-5.3-.9-2.7-.4-10-2-16.3-3.6-49.1-12.7-94.1-42.6-124-82.5-8.6-11.5-9.7-13.5-8.2-13.9.7-.2 3.6-1.1 6.3-1.9 2.8-.8 12.2-3.4 21-5.7 16.7-4.4 47.4-12.8 58.5-16 3.6-1 15.5-4.2 26.5-7 22.7-5.9 54.9-14.6 96.5-26 30.2-8.3 38.2-10.4 63-17 8.5-2.2 20.4-5.3 26.5-7 6-1.6 11.1-2.7 11.4-2.5.2.3-1.2 2.2-3.2 4.4-14.5 16.1-12.9 41.5 3.6 55.6 7.5 6.5 14 8.9 24.5 9.1 9.8.2 14.2-.9 21.7-5.6 11-6.8 18.5-19.8 18.7-32.2.2-10.1-5.4-23.1-12.8-30-3.5-3.2-16.1-9.8-18.8-9.8-4 0-.2-1.3 15.6-5.5 22.3-5.9 38.1-10.1 45.8-12.4 10.9-3.2 10.4-3.6 9.6 7.5zm-435.3 8.6c1 .7 1.9 2.6 2.1 4.3.4 2.5 1.9 11.2 4.3 23.5 1.1 5.9 1.4 7.9 1.8 16 .3 4.7.5 8.7.5 9.1 0 .3 4.2-.5 9.3-1.8 13.3-3.3 13.8-3.3 29.2-3.9 15.5-.6 18.8.2 19.3 4.6.1 1.4-.7 3.6-1.7 5-2.1 2.7.2 2.5-26.6 1.9-11.2-.2-16.6.2-26.5 2.2-6.3 1.3-9.3 2.7-13.5 6.5-3.9 3.4-8.2 5.2-14.2 5.9-9.9 1.1-11.3-5.4-2.1-10.3 7.6-4.1 8.6-5.2 8.3-10.4-.4-6.2-1.3-12.6-3.5-25.3-3.3-19.2-3.4-20.4-1.3-22.7 2-2.3 8.8-5.7 11.4-5.8.8 0 2.3.6 3.2 1.2zm59.4 6.9c2.5 1.3 3.9 4.9 2.9 7.4-.3.9 0 1.5.8 1.5.7 0 2.6 3.5 4.3 7.7 1.7 4.2 3.4 7.8 4 8 .5.2 2.2-3.4 3.7-7.9 5.4-16.3 5.7-16.8 7.7-16.8 2.6 0 2.5 3.6-.5 13-4.2 13.2-6.1 16.5-11.4 19.8-2.5 1.4-4.2 1.8-6.5 1.2-3.8-.8-9.3-3.6-10.2-5-.9-1.4-2.5-1.2-2.5.3 0 .7-1.7 3-3.8 5-5.5 5.3-15.3 6.8-20.9 3.2-8.5-5.6-6.4-23.6 3.5-31.3 8.8-6.7 22.4-9.6 28.9-6.1z"/><path d="M350.3 153c-7.3 1.6-12.7 8.2-12.5 15.5.1 13 14.1 20.5 24.9 13.2 7.9-5.3 9.3-16.7 3-23.5-4.2-4.6-9.7-6.4-15.4-5.2zM430.2 174.5c-23.4 8.5-33.3 33.6-22.1 56 3.1 6.3 10.6 13 18.7 16.8 6.1 2.9 7.5 3.2 16.2 3.1 8.7 0 10.1-.3 16.3-3.4 31.3-15.4 29.1-59.8-3.5-72.2-7.7-2.9-18.1-3-25.6-.3zM274.1 176.6c-14.1 2.9-24.8 12.3-29.6 26-6.4 18.4 2 38.5 20 47.6 10.2 5.2 26.9 5 34.7-.4 1.4-1 3-1.8 3.5-1.8s3.2-2.4 6-5.3c15.9-16.1 15.7-40.6-.4-55.8-9.4-8.9-22.1-12.7-34.2-10.3zM542 292.8c-6.8 3.4-10.9 12.6-9.6 21.5.9 5.8 2 7.4 4 5.8 1.5-1.3 3.9-10.5 3.8-15.1 0-3.8 1.5-5.7 5.3-7.1 3.6-1.3 4.5-3.5 2.3-5.7-1.5-1.5-1.6-1.5-5.8.6zM460.5 317c-.3.5-.7 3.7-.9 7.2-.7 10.8 4.2 19.8 7.2 13.3 1.5-3.2 1.6-12.2.2-16.2-1.1-3.1-5.5-6-6.5-4.3zM274.4 338.1c-8.1 3.1-7.8 2.8-6.2 4.7 2.1 2.3 2.6 4.4 3.4 13.7.3 4.4.8 8.2 1 8.4.8.8 6.6-6.6 8.6-10.9 2.3-5.1 2.7-12.2.9-14.3-1.5-1.8-5.2-2.6-7.7-1.6zM333 466.7c-11.5 2.9-21.1 11-26.2 22-9.1 19.3-.7 41.8 19.1 51.6 6.1 3 7.2 3.2 16.6 3.1 8.4 0 10.8-.4 15-2.4 22.5-10.7 30.4-35.5 17.9-56.7-3.4-5.8-6-8.4-12.4-12.5-6.9-4.3-8.2-4.8-15-5.4-3-.3-6.4-.7-7.5-.8-1.1-.2-4.5.3-7.5 1.1zM227 492.1c-11.4 4.6-13.6 20.7-3.7 27.9 4.8 3.6 13.1 3.9 17.7.8 4.3-3 8-9.2 8-13.8 0-3.3-2.5-8.7-5.4-11.5-4-4-11.3-5.5-16.6-3.4zM452.5 501.3c-7.9 2.6-12 8.7-11.3 16.7 1.6 15.9 22.8 19.8 29.8 5.4 2.5-5.1 2.5-8.7-.1-14-3.3-6.9-11.4-10.4-18.4-8.1zM125.5 447c-.3.5-.1 1 .4 1 .6 0 1.1-.5 1.1-1 0-.6-.2-1-.4-1-.3 0-.8.4-1.1 1zM189.5 390.9c-4.3 2.6-6.4 5.2-8.4 10.7-2.7 7.4-1.6 17.4 1.9 17.4 1.4 0 4.1-8.2 4.5-13.7.4-6.2 2.2-8.9 6.6-9.8 3.3-.8 3.5-1.2 1.3-4.3-1.8-2.7-2.1-2.7-5.9-.3z"/></svg>